ffmpeg started on 2025-06-06 at 20:44:13
Report written to "D:\Convert\FFMetrics\reports\psnr_report-6.txt"
Log level: 32
Command line:
ffmpeg -hide_banner -nostdin -i "G:\\\xc0\xed\xe8\xec\xe5\\\xce\xed\xe3\xee\xe8\xed\xe3\xe8\\!_36_\xce\xf1\xe5\xed\xfc_2024\\DreamCast\\\xd2\xe5\xf2\xf0\xe0\xe4\xfc \xe4\xf0\xf3\xe6\xe1\xfb \xcd\xe0\xf6\xf3\xec\xfd [\xd2\xc2-7]\\[DC] Natsume Yuujinchou Shichi - 08_Telegram_HEVC.mkv" -i "G:\\\xc0\xed\xe8\xec\xe5\\\xce\xed\xe3\xee\xe8\xed\xe3\xe8\\!_36_\xce\xf1\xe5\xed\xfc_2024\\DreamCast\\\xd2\xe5\xf2\xf0\xe0\xe4\xfc \xe4\xf0\xf3\xe6\xe1\xfb \xcd\xe0\xf6\xf3\xec\xfd [\xd2\xc2-7]\\[DC] Natsume Yuujinchou Shichi - 08_Telegram.mp4" -lavfi "[0:v]settb=AVTB,setpts=PTS-STARTPTS,format=pix_fmts=yuv420p10,fps=24000/1001,scale=1920:1080:flags=bicubic[main];[1:v]settb=AVTB,setpts=PTS-STARTPTS,format=pix_fmts=yuv420p,fps=24000/1001,scale=1920:1080:flags=bicubic[ref];[main][ref]psnr=eof_action=endall:stats_file='D\\:/Convert/FFMetrics/logs/psnr_logfile-6.txt'" -f null -
Input #0, matroska,webm, from 'G:\Аниме\Онгоинги\!_36_Осень_2024\DreamCast\Тетрадь дружбы Нацумэ [ТВ-7]\[DC] Natsume Yuujinchou Shichi - 08_Telegram_HEVC.mkv':
  Metadata:
    COMPATIBLE_BRANDS: isomiso2avc1mp41
    MAJOR_BRAND     : isom
    MINOR_VERSION   : 512
    ENCODER         : Lavf61.7.100
  Duration: 00:23:56.72, start: -0.021000, bitrate: 778 kb/s
  Stream #0:0: Video: hevc (Main 10), yuv420p10le(tv, bt709, progressive), 1920x1080 [SAR 1:1 DAR 16:9], 23.98 fps, 23.98 tbr, 1k tbn (default)
      Metadata:
        HANDLER_NAME    : VideoHandler
        VENDOR_ID       : [0][0][0][0]
        ENCODER         : Lavc61.19.100 libx265
        BPS             : 580990
        DURATION        : 00:23:56.559708333
        NUMBER_OF_FRAMES: 34443
        NUMBER_OF_BYTES : 104328478
        _STATISTICS_WRITING_APP: mkvpropedit v66.0.0 ('Josie') 64-bit
        _STATISTICS_WRITING_DATE_UTC: 2025-06-04 15:32:00
        _STATISTICS_TAGS: BPS DURATION NUMBER_OF_FRAMES NUMBER_OF_BYTES
  Stream #0:1: Audio: aac (LC), 48000 Hz, stereo, fltp (default)
      Metadata:
        HANDLER_NAME    : SoundHandler
        VENDOR_ID       : [0][0][0][0]
        ENCODER         : Lavc61.19.100 aac
        BPS             : 193618
        DURATION        : 00:23:56.714000000
        NUMBER_OF_FRAMES: 67347
        NUMBER_OF_BYTES : 34771728
        _STATISTICS_WRITING_APP: mkvpropedit v66.0.0 ('Josie') 64-bit
        _STATISTICS_WRITING_DATE_UTC: 2025-06-04 15:32:00
        _STATISTICS_TAGS: BPS DURATION NUMBER_OF_FRAMES NUMBER_OF_BYTES
Input #1, mov,mp4,m4a,3gp,3g2,mj2, from 'G:\Аниме\Онгоинги\!_36_Осень_2024\DreamCast\Тетрадь дружбы Нацумэ [ТВ-7]\[DC] Natsume Yuujinchou Shichi - 08_Telegram.mp4':
  Metadata:
    major_brand     : isom
    minor_version   : 512
    compatible_brands: isomiso2avc1mp41
    encoder         : Lavf61.1.100
  Duration: 00:23:56.68, start: 0.000000, bitrate: 3475 kb/s
  Stream #1:0[0x1](und): Video: h264 (High) (avc1 / 0x31637661), yuv420p(tv, bt709, progressive), 1920x1080 [SAR 1:1 DAR 16:9], 3327 kb/s, 23.98 fps, 23.98 tbr, 24k tbn (default)
      Metadata:
        handler_name    : VideoHandler
        vendor_id       : [0][0][0][0]
        encoder         : Lavc61.3.100 h264_qsv
  Stream #1:1[0x2](und): Audio: aac (HE-AACv2) (mp4a / 0x6134706D), 48000 Hz, stereo, fltp, 144 kb/s (default)
      Metadata:
        handler_name    : SoundHandler
        vendor_id       : [0][0][0][0]
Stream mapping:
  Stream #0:0 (hevc) -> settb:default
  Stream #1:0 (h264) -> settb:default
  psnr:default -> Stream #0:0 (wrapped_avframe)
  Stream #0:1 -> #0:1 (aac (native) -> pcm_s16le (native))
Output #0, null, to 'pipe:':
  Metadata:
    COMPATIBLE_BRANDS: isomiso2avc1mp41
    MAJOR_BRAND     : isom
    MINOR_VERSION   : 512
    encoder         : Lavf61.7.100
  Stream #0:0: Video: wrapped_avframe, yuv420p10le(tv, bt709, progressive), 1920x1080 [SAR 1:1 DAR 16:9], q=2-31, 200 kb/s, 23.98 fps, 23.98 tbn
      Metadata:
        encoder         : Lavc61.19.100 wrapped_avframe
  Stream #0:1: Audio: pcm_s16le, 48000 Hz, stereo, s16, 1536 kb/s (default)
      Metadata:
        HANDLER_NAME    : SoundHandler
        VENDOR_ID       : [0][0][0][0]
        _STATISTICS_TAGS: BPS DURATION NUMBER_OF_FRAMES NUMBER_OF_BYTES
        BPS             : 193618
        DURATION        : 00:23:56.714000000
        NUMBER_OF_FRAMES: 67347
        NUMBER_OF_BYTES : 34771728
        _STATISTICS_WRITING_APP: mkvpropedit v66.0.0 ('Josie') 64-bit
        _STATISTICS_WRITING_DATE_UTC: 2025-06-04 15:32:00
        encoder         : Lavc61.19.100 pcm_s16le
frame=  165 fps=0.0 q=-0.0 size=N/A time=00:00:06.88 bitrate=N/A speed=13.5x    frame=  330 fps=320 q=-0.0 size=N/A time=00:00:13.76 bitrate=N/A speed=13.4x    frame=  512 fps=329 q=-0.0 size=N/A time=00:00:21.35 bitrate=N/A speed=13.7x    frame=  739 fps=358 q=-0.0 size=N/A time=00:00:30.82 bitrate=N/A speed=14.9x    frame=  924 fps=359 q=-0.0 size=N/A time=00:00:38.53 bitrate=N/A speed=  15x    frame= 1160 fps=374 q=-0.0 size=N/A time=00:00:48.38 bitrate=N/A speed=15.6x    frame= 1325 fps=368 q=-0.0 size=N/A time=00:00:55.26 bitrate=N/A speed=15.3x    frame= 1549 fps=375 q=-0.0 size=N/A time=00:01:04.60 bitrate=N/A speed=15.7x    frame= 1740 fps=375 q=-0.0 size=N/A time=00:01:12.57 bitrate=N/A speed=15.6x    frame= 1921 fps=373 q=-0.0 size=N/A time=00:01:20.12 bitrate=N/A speed=15.5x    frame= 2127 fps=375 q=-0.0 size=N/A time=00:01:28.71 bitrate=N/A speed=15.6x    frame= 2333 fps=377 q=-0.0 size=N/A time=00:01:37.30 bitrate=N/A speed=15.7x    frame= 2598 fps=387 q=-0.0 size=N/A time=00:01:48.35 bitrate=N/A speed=16.2x    frame= 2860 fps=396 q=-0.0 size=N/A time=00:01:59.28 bitrate=N/A speed=16.5x    frame= 3100 fps=401 q=-0.0 size=N/A time=00:02:09.29 bitrate=N/A speed=16.7x    frame= 3384 fps=410 q=-0.0 size=N/A time=00:02:21.14 bitrate=N/A speed=17.1x    frame= 3661 fps=418 q=-0.0 size=N/A time=00:02:32.69 bitrate=N/A speed=17.4x    frame= 3934 fps=424 q=-0.0 size=N/A time=00:02:44.08 bitrate=N/A speed=17.7x    frame= 4209 fps=429 q=-0.0 size=N/A time=00:02:55.55 bitrate=N/A speed=17.9x    frame= 4484 fps=434 q=-0.0 size=N/A time=00:03:07.02 bitrate=N/A speed=18.1x    frame= 4765 fps=440 q=-0.0 size=N/A time=00:03:18.74 bitrate=N/A speed=18.3x    frame= 5045 fps=444 q=-0.0 size=N/A time=00:03:30.41 bitrate=N/A speed=18.5x    frame= 5336 fps=450 q=-0.0 size=N/A time=00:03:42.55 bitrate=N/A speed=18.8x    frame= 5618 fps=454 q=-0.0 size=N/A time=00:03:54.31 bitrate=N/A speed=18.9x    frame= 5865 fps=455 q=-0.0 size=N/A time=00:04:04.61 bitrate=N/A speed=  19x    frame= 6119 fps=456 q=-0.0 size=N/A time=00:04:15.21 bitrate=N/A speed=  19x    frame= 6348 fps=456 q=-0.0 size=N/A time=00:04:24.76 bitrate=N/A speed=  19x    frame= 6595 fps=457 q=-0.0 size=N/A time=00:04:35.06 bitrate=N/A speed=19.1x    frame= 6855 fps=458 q=-0.0 size=N/A time=00:04:45.91 bitrate=N/A speed=19.1x    frame= 7125 fps=461 q=-0.0 size=N/A time=00:04:57.17 bitrate=N/A speed=19.2x    frame= 7389 fps=462 q=-0.0 size=N/A time=00:05:08.18 bitrate=N/A speed=19.3x    frame= 7671 fps=465 q=-0.0 size=N/A time=00:05:19.94 bitrate=N/A speed=19.4x    frame= 7948 fps=467 q=-0.0 size=N/A time=00:05:31.49 bitrate=N/A speed=19.5x    frame= 8230 fps=469 q=-0.0 size=N/A time=00:05:43.25 bitrate=N/A speed=19.6x    frame= 8490 fps=471 q=-0.0 size=N/A time=00:05:54.10 bitrate=N/A speed=19.6x    frame= 8781 fps=473 q=-0.0 size=N/A time=00:06:06.24 bitrate=N/A speed=19.7x    frame= 9064 fps=475 q=-0.0 size=N/A time=00:06:18.04 bitrate=N/A speed=19.8x    frame= 9345 fps=477 q=-0.0 size=N/A time=00:06:29.76 bitrate=N/A speed=19.9x    frame= 9622 fps=478 q=-0.0 size=N/A time=00:06:41.31 bitrate=N/A speed=  20x    frame= 9897 fps=480 q=-0.0 size=N/A time=00:06:52.78 bitrate=N/A speed=  20x    frame=10171 fps=481 q=-0.0 size=N/A time=00:07:04.21 bitrate=N/A speed=20.1x    frame=10445 fps=482 q=-0.0 size=N/A time=00:07:15.64 bitrate=N/A speed=20.1x    frame=10713 fps=483 q=-0.0 size=N/A time=00:07:26.82 bitrate=N/A speed=20.2x    frame=10982 fps=484 q=-0.0 size=N/A time=00:07:38.04 bitrate=N/A speed=20.2x    frame=11260 fps=485 q=-0.0 size=N/A time=00:07:49.63 bitrate=N/A speed=20.2x    frame=11513 fps=485 q=-0.0 size=N/A time=00:08:00.18 bitrate=N/A speed=20.2x    frame=11790 fps=486 q=-0.0 size=N/A time=00:08:11.74 bitrate=N/A speed=20.3x    frame=12071 fps=488 q=-0.0 size=N/A time=00:08:23.46 bitrate=N/A speed=20.3x    frame=12339 fps=488 q=-0.0 size=N/A time=00:08:34.63 bitrate=N/A speed=20.4x    frame=12603 fps=489 q=-0.0 size=N/A time=00:08:45.65 bitrate=N/A speed=20.4x    frame=12863 fps=489 q=-0.0 size=N/A time=00:08:56.49 bitrate=N/A speed=20.4x    frame=13151 fps=491 q=-0.0 size=N/A time=00:09:08.50 bitrate=N/A speed=20.5x    frame=13416 fps=491 q=-0.0 size=N/A time=00:09:19.55 bitrate=N/A speed=20.5x    frame=13679 fps=491 q=-0.0 size=N/A time=00:09:30.52 bitrate=N/A speed=20.5x    frame=13938 fps=491 q=-0.0 size=N/A time=00:09:41.33 bitrate=N/A speed=20.5x    frame=14212 fps=492 q=-0.0 size=N/A time=00:09:52.75 bitrate=N/A speed=20.5x    frame=14487 fps=493 q=-0.0 size=N/A time=00:10:04.22 bitrate=N/A speed=20.6x    frame=14746 fps=493 q=-0.0 size=N/A time=00:10:15.03 bitrate=N/A speed=20.6x    frame=15029 fps=494 q=-0.0 size=N/A time=00:10:26.83 bitrate=N/A speed=20.6x    frame=15305 fps=495 q=-0.0 size=N/A time=00:10:38.34 bitrate=N/A speed=20.6x    frame=15591 fps=496 q=-0.0 size=N/A time=00:10:50.27 bitrate=N/A speed=20.7x    frame=15880 fps=497 q=-0.0 size=N/A time=00:11:02.32 bitrate=N/A speed=20.7x    frame=16156 fps=497 q=-0.0 size=N/A time=00:11:13.83 bitrate=N/A speed=20.7x    frame=16412 fps=497 q=-0.0 size=N/A time=00:11:24.51 bitrate=N/A speed=20.7x    frame=16687 fps=498 q=-0.0 size=N/A time=00:11:35.98 bitrate=N/A speed=20.8x    frame=16960 fps=498 q=-0.0 size=N/A time=00:11:47.37 bitrate=N/A speed=20.8x    frame=17234 fps=499 q=-0.0 size=N/A time=00:11:58.80 bitrate=N/A speed=20.8x    frame=17503 fps=499 q=-0.0 size=N/A time=00:12:10.02 bitrate=N/A speed=20.8x    frame=17774 fps=500 q=-0.0 size=N/A time=00:12:21.32 bitrate=N/A speed=20.8x    frame=18045 fps=500 q=-0.0 size=N/A time=00:12:32.62 bitrate=N/A speed=20.9x    frame=18303 fps=500 q=-0.0 size=N/A time=00:12:43.38 bitrate=N/A speed=20.8x    frame=18535 fps=499 q=-0.0 size=N/A time=00:12:53.06 bitrate=N/A speed=20.8x    frame=18788 fps=499 q=-0.0 size=N/A time=00:13:03.61 bitrate=N/A speed=20.8x    frame=19041 fps=499 q=-0.0 size=N/A time=00:13:14.16 bitrate=N/A speed=20.8x    frame=19299 fps=499 q=-0.0 size=N/A time=00:13:24.92 bitrate=N/A speed=20.8x    frame=19575 fps=499 q=-0.0 size=N/A time=00:13:36.44 bitrate=N/A speed=20.8x    frame=19832 fps=500 q=-0.0 size=N/A time=00:13:47.15 bitrate=N/A speed=20.8x    frame=20101 fps=500 q=-0.0 size=N/A time=00:13:58.37 bitrate=N/A speed=20.8x    frame=20324 fps=499 q=-0.0 size=N/A time=00:14:07.68 bitrate=N/A speed=20.8x    frame=20565 fps=498 q=-0.0 size=N/A time=00:14:17.73 bitrate=N/A speed=20.8x    frame=20820 fps=499 q=-0.0 size=N/A time=00:14:28.36 bitrate=N/A speed=20.8x    frame=21097 fps=499 q=-0.0 size=N/A time=00:14:39.92 bitrate=N/A speed=20.8x    frame=21375 fps=499 q=-0.0 size=N/A time=00:14:51.51 bitrate=N/A speed=20.8x    frame=21651 fps=500 q=-0.0 size=N/A time=00:15:03.02 bitrate=N/A speed=20.8x    frame=21929 fps=500 q=-0.0 size=N/A time=00:15:14.62 bitrate=N/A speed=20.9x    frame=22198 fps=501 q=-0.0 size=N/A time=00:15:25.84 bitrate=N/A speed=20.9x    frame=22457 fps=501 q=-0.0 size=N/A time=00:15:36.64 bitrate=N/A speed=20.9x    frame=22730 fps=501 q=-0.0 size=N/A time=00:15:48.03 bitrate=N/A speed=20.9x    frame=22989 fps=501 q=-0.0 size=N/A time=00:15:58.83 bitrate=N/A speed=20.9x    frame=23249 fps=501 q=-0.0 size=N/A time=00:16:09.67 bitrate=N/A speed=20.9x    frame=23511 fps=501 q=-0.0 size=N/A time=00:16:20.60 bitrate=N/A speed=20.9x    frame=23778 fps=501 q=-0.0 size=N/A time=00:16:31.74 bitrate=N/A speed=20.9x    frame=24050 fps=502 q=-0.0 size=N/A time=00:16:43.08 bitrate=N/A speed=20.9x    frame=24300 fps=501 q=-0.0 size=N/A time=00:16:53.51 bitrate=N/A speed=20.9x    frame=24567 fps=501 q=-0.0 size=N/A time=00:17:04.64 bitrate=N/A speed=20.9x    frame=24839 fps=502 q=-0.0 size=N/A time=00:17:15.99 bitrate=N/A speed=20.9x    frame=25118 fps=502 q=-0.0 size=N/A time=00:17:27.62 bitrate=N/A speed=20.9x    frame=25392 fps=503 q=-0.0 size=N/A time=00:17:39.05 bitrate=N/A speed=  21x    frame=25663 fps=503 q=-0.0 size=N/A time=00:17:50.36 bitrate=N/A speed=  21x    frame=25923 fps=503 q=-0.0 size=N/A time=00:18:01.20 bitrate=N/A speed=  21x    frame=26204 fps=503 q=-0.0 size=N/A time=00:18:12.92 bitrate=N/A speed=  21x    frame=26478 fps=503 q=-0.0 size=N/A time=00:18:24.35 bitrate=N/A speed=  21x    frame=26732 fps=503 q=-0.0 size=N/A time=00:18:34.94 bitrate=N/A speed=  21x    frame=26989 fps=503 q=-0.0 size=N/A time=00:18:45.66 bitrate=N/A speed=  21x    frame=27233 fps=503 q=-0.0 size=N/A time=00:18:55.84 bitrate=N/A speed=  21x    frame=27512 fps=503 q=-0.0 size=N/A time=00:19:07.47 bitrate=N/A speed=  21x    frame=27772 fps=503 q=-0.0 size=N/A time=00:19:18.32 bitrate=N/A speed=  21x    frame=28029 fps=503 q=-0.0 size=N/A time=00:19:29.04 bitrate=N/A speed=  21x    frame=28303 fps=503 q=-0.0 size=N/A time=00:19:40.47 bitrate=N/A speed=  21x    frame=28553 fps=503 q=-0.0 size=N/A time=00:19:50.89 bitrate=N/A speed=  21x    frame=28758 fps=502 q=-0.0 size=N/A time=00:19:59.44 bitrate=N/A speed=20.9x    frame=29003 fps=502 q=-0.0 size=N/A time=00:20:09.66 bitrate=N/A speed=20.9x    frame=29248 fps=502 q=-0.0 size=N/A time=00:20:19.88 bitrate=N/A speed=20.9x    frame=29418 fps=500 q=-0.0 size=N/A time=00:20:26.97 bitrate=N/A speed=20.9x    frame=29667 fps=500 q=-0.0 size=N/A time=00:20:37.36 bitrate=N/A speed=20.9x    frame=29933 fps=500 q=-0.0 size=N/A time=00:20:48.45 bitrate=N/A speed=20.9x    frame=30183 fps=500 q=-0.0 size=N/A time=00:20:58.88 bitrate=N/A speed=20.9x    frame=30413 fps=500 q=-0.0 size=N/A time=00:21:08.47 bitrate=N/A speed=20.8x    frame=30688 fps=500 q=-0.0 size=N/A time=00:21:19.94 bitrate=N/A speed=20.9x    frame=30961 fps=500 q=-0.0 size=N/A time=00:21:31.33 bitrate=N/A speed=20.9x    frame=31189 fps=500 q=-0.0 size=N/A time=00:21:40.84 bitrate=N/A speed=20.8x    frame=31449 fps=500 q=-0.0 size=N/A time=00:21:51.68 bitrate=N/A speed=20.8x    frame=31704 fps=500 q=-0.0 size=N/A time=00:22:02.32 bitrate=N/A speed=20.8x    frame=31969 fps=500 q=-0.0 size=N/A time=00:22:13.37 bitrate=N/A speed=20.8x    frame=32196 fps=499 q=-0.0 size=N/A time=00:22:22.84 bitrate=N/A speed=20.8x    frame=32429 fps=499 q=-0.0 size=N/A time=00:22:32.55 bitrate=N/A speed=20.8x    frame=32668 fps=499 q=-0.0 size=N/A time=00:22:42.52 bitrate=N/A speed=20.8x    frame=32896 fps=498 q=-0.0 size=N/A time=00:22:52.03 bitrate=N/A speed=20.8x    frame=33151 fps=498 q=-0.0 size=N/A time=00:23:02.67 bitrate=N/A speed=20.8x    frame=33393 fps=498 q=-0.0 size=N/A time=00:23:12.76 bitrate=N/A speed=20.8x    frame=33625 fps=498 q=-0.0 size=N/A time=00:23:22.44 bitrate=N/A speed=20.8x    frame=33887 fps=498 q=-0.0 size=N/A time=00:23:33.37 bitrate=N/A speed=20.8x    frame=34102 fps=497 q=-0.0 size=N/A time=00:23:42.33 bitrate=N/A speed=20.7x    frame=34342 fps=497 q=-0.0 size=N/A time=00:23:52.34 bitrate=N/A speed=20.7x    [Parsed_psnr_10 @ 0000018f2cd32340] PSNR y:50.263041 u:51.674818 v:52.207640 average:50.751665 min:42.131193 max:inf
[out#0/null @ 0000018f2cce46c0] video:14800KiB audio:269388KiB subtitle:0KiB other streams:0KiB global headers:0KiB muxing overhead: unknown
frame=34443 fps=497 q=-0.0 Lsize=N/A time=00:23:56.56 bitrate=N/A speed=20.7x    
